<svg width="385" height="379" viewBox="0 0 385 379" fill="none" xmlns="http://www.w3.org/2000/svg">
<path d="M103.149 282.353C107.861 282.353 112.016 283.341 115.613 285.317C119.21 287.242 122.022 290.231 124.049 294.285C126.126 298.338 127.165 303.557 127.165 309.941V346.573H104.441V313.437C104.441 309.079 103.782 305.558 102.465 302.873C101.148 300.187 98.5383 298.845 94.6369 298.845C92.3063 298.845 90.2543 299.453 88.4809 300.669C86.7076 301.885 85.3396 303.582 84.3769 305.761C83.4143 307.889 82.9329 310.447 82.9329 313.437V346.573H61.7289V313.437C61.7289 309.079 60.9943 305.558 59.5249 302.873C58.1063 300.187 55.5729 298.845 51.9249 298.845C49.5943 298.845 47.5423 299.453 45.7689 300.669C43.9956 301.834 42.6276 303.506 41.6649 305.685C40.7529 307.813 40.2969 310.397 40.2969 313.437V346.573H17.3449V284.177H40.2969V293.069C40.9049 291.498 42.2223 289.902 44.2489 288.281C46.3263 286.609 48.8849 285.215 51.9249 284.101C54.9649 282.935 58.1823 282.353 61.5769 282.353C65.2756 282.353 68.3663 282.91 70.8489 284.025C73.3316 285.089 75.3583 286.533 76.9289 288.357C78.5503 290.181 79.8423 292.157 80.8049 294.285C81.5143 292.461 82.9076 290.637 84.9849 288.813C87.1129 286.938 89.7476 285.393 92.8889 284.177C96.0809 282.961 99.5009 282.353 103.149 282.353ZM172.316 348.397C165.476 348.397 159.396 347.003 154.076 344.217C148.807 341.379 144.652 337.503 141.612 332.589C138.623 327.623 137.128 321.949 137.128 315.565C137.128 309.181 138.623 303.506 141.612 298.541C144.652 293.525 148.807 289.573 154.076 286.685C159.396 283.797 165.476 282.353 172.316 282.353C179.156 282.353 185.185 283.797 190.404 286.685C195.623 289.573 199.701 293.525 202.64 298.541C205.579 303.506 207.048 309.181 207.048 315.565C207.048 321.949 205.579 327.623 202.64 332.589C199.701 337.503 195.623 341.379 190.404 344.217C185.185 347.003 179.156 348.397 172.316 348.397ZM172.316 329.397C174.951 329.397 177.231 328.814 179.156 327.649C181.081 326.483 182.576 324.837 183.64 322.709C184.704 320.581 185.236 318.174 185.236 315.489C185.236 312.753 184.704 310.321 183.64 308.193C182.576 306.065 181.081 304.393 179.156 303.177C177.231 301.961 174.951 301.353 172.316 301.353C169.681 301.353 167.376 301.961 165.4 303.177C163.475 304.393 161.955 306.065 160.84 308.193C159.776 310.321 159.244 312.753 159.244 315.489C159.244 318.174 159.776 320.581 160.84 322.709C161.955 324.837 163.475 326.483 165.4 327.649C167.376 328.814 169.681 329.397 172.316 329.397ZM213.448 284.177H238.148L253.196 325.597L268.32 284.177H292.868L266.724 346.573H239.668L213.448 284.177ZM333.661 326.585L350.533 284.177H373.181L330.317 378.189H307.213L321.653 346.573L295.584 284.177H318.613L333.661 326.585Z" fill="#F09000"/>
<path d="M114.366 45.1243C116.238 38.8765 123.493 36.0638 129.087 39.4174L215.814 91.4097C219.737 93.7615 221.565 98.4751 220.252 102.856L194.589 188.516C190.789 201.199 179.125 209.891 165.885 209.906L78.4149 210.007C71.7131 210.015 66.9007 203.557 68.8241 197.137L114.366 45.1243Z" fill="#F09000"/>
<path d="M256.891 60.618C254.293 51.9823 244.717 47.5742 236.468 51.2165L124.571 100.621C121.553 101.954 119.359 104.657 118.677 107.886C117.885 111.639 119.252 115.52 122.221 117.948L226.428 203.161C231.787 207.544 238.496 209.938 245.419 209.938L281.628 209.938C291.68 209.938 298.888 200.243 295.992 190.617L256.891 60.618Z" fill="#A00043"/>
</svg>
