<svg width="654" height="276" viewBox="0 0 654 276" fill="none" xmlns="http://www.w3.org/2000/svg">
<path d="M372.149 93.78C376.861 93.78 381.016 94.768 384.613 96.744C388.21 98.6693 391.022 101.659 393.049 105.712C395.126 109.765 396.165 114.984 396.165 121.368V158H373.441V124.864C373.441 120.507 372.782 116.985 371.465 114.3C370.148 111.615 367.538 110.272 363.637 110.272C361.306 110.272 359.254 110.88 357.481 112.096C355.708 113.312 354.34 115.009 353.377 117.188C352.414 119.316 351.933 121.875 351.933 124.864V158H330.729V124.864C330.729 120.507 329.994 116.985 328.525 114.3C327.106 111.615 324.573 110.272 320.925 110.272C318.594 110.272 316.542 110.88 314.769 112.096C312.996 113.261 311.628 114.933 310.665 117.112C309.753 119.24 309.297 121.824 309.297 124.864V158H286.345V95.604H309.297V104.496C309.905 102.925 311.222 101.329 313.249 99.708C315.326 98.036 317.885 96.6427 320.925 95.528C323.965 94.3627 327.182 93.78 330.577 93.78C334.276 93.78 337.366 94.3373 339.849 95.452C342.332 96.516 344.358 97.96 345.929 99.784C347.55 101.608 348.842 103.584 349.805 105.712C350.514 103.888 351.908 102.064 353.985 100.24C356.113 98.3653 358.748 96.82 361.889 95.604C365.081 94.388 368.501 93.78 372.149 93.78ZM441.316 159.824C434.476 159.824 428.396 158.431 423.076 155.644C417.807 152.807 413.652 148.931 410.612 144.016C407.623 139.051 406.128 133.376 406.128 126.992C406.128 120.608 407.623 114.933 410.612 109.968C413.652 104.952 417.807 101 423.076 98.112C428.396 95.224 434.476 93.78 441.316 93.78C448.156 93.78 454.185 95.224 459.404 98.112C464.623 101 468.701 104.952 471.64 109.968C474.579 114.933 476.048 120.608 476.048 126.992C476.048 133.376 474.579 139.051 471.64 144.016C468.701 148.931 464.623 152.807 459.404 155.644C454.185 158.431 448.156 159.824 441.316 159.824ZM441.316 140.824C443.951 140.824 446.231 140.241 448.156 139.076C450.081 137.911 451.576 136.264 452.64 134.136C453.704 132.008 454.236 129.601 454.236 126.916C454.236 124.18 453.704 121.748 452.64 119.62C451.576 117.492 450.081 115.82 448.156 114.604C446.231 113.388 443.951 112.78 441.316 112.78C438.681 112.78 436.376 113.388 434.4 114.604C432.475 115.82 430.955 117.492 429.84 119.62C428.776 121.748 428.244 124.18 428.244 126.916C428.244 129.601 428.776 132.008 429.84 134.136C430.955 136.264 432.475 137.911 434.4 139.076C436.376 140.241 438.681 140.824 441.316 140.824ZM482.448 95.604H507.148L522.196 137.024L537.32 95.604H561.868L535.724 158H508.668L482.448 95.604ZM602.661 138.012L619.533 95.604H642.181L599.317 189.616H576.213L590.653 158L564.584 95.604H587.613L602.661 138.012Z" fill="#FF9F46"/>
<path d="M50.3663 45.1243C52.2381 38.8765 59.4935 36.0638 65.0874 39.4174L151.814 91.4097C155.737 93.7615 157.565 98.4751 156.252 102.856L130.589 188.516C126.789 201.199 115.125 209.891 101.885 209.906L14.4149 210.007C7.71306 210.015 2.90072 203.557 4.82411 197.137L50.3663 45.1243Z" fill="#FF9F46"/>
<path d="M192.89 60.618C190.293 51.9823 180.717 47.5742 172.468 51.2165L60.5715 100.621C57.5526 101.954 55.3591 104.657 54.6773 107.886V107.886C53.8848 111.639 55.2516 115.52 58.2208 117.948L162.428 203.161C167.787 207.544 174.496 209.938 181.419 209.938L217.628 209.938C227.68 209.938 234.887 200.243 231.992 190.617L192.89 60.618Z" fill="#E40060"/>
</svg>
